# xmcd CD database file
#
# Track frame offsets:
#	150
#	19260
#	44637
#	57854
#	82968
#	104334
#	126873
#	145275
#	176276
#	198648
#	241829
#
# Disc length: 3534 seconds
#
# Revision: 1
# Processed by: cddbd v1.5.2PL0 Copyright (c) Steve Scherf et al.
# Submitted via: CDex 1.51
#
DISCID=950dcc0b
DTITLE=Darrel Mansfield Bluesband - Live In Europe
DYEAR=1999
DGENRE=Blues
TTITLE0=Let's Work Together
TTITLE1=There's Gotta Be A Change
TTITLE2=Tell The Truth
TTITLE3=Walk With Me Jesus
TTITLE4=The Mission
TTITLE5=Nobody But You Lord
TTITLE6=Boom Boom
TTITLE7=People Get Ready
TTITLE8=Last Chance Boogie
TTITLE9=Million $ Feeling
TTITLE10=Time To Go
EXTD=YEAR: 1999
EXTT0=
EXTT1=
EXTT2=
EXTT3=
EXTT4=
EXTT5=
EXTT6=
EXTT7=
EXTT8=
EXTT9=
EXTT10=
PLAYORDER=
